<?xml version="1.0" encoding="UTF-8"?>
<svg width="25px" height="30px" viewBox="0 0 25 30" version="1.1" xmlns="http://www.w3.org/2000/svg" xmlns:xlink="http://www.w3.org/1999/xlink">
    <!-- Generator: Sketch 52.6 (67491) - http://www.bohemiancoding.com/sketch -->
    <title>logo.d8e3dd1a</title>
    <desc>Created with Sketch.</desc>
    <g id="Style-Guide" stroke="none" stroke-width="1" fill="none" fill-rule="evenodd">
        <g id="Navigation" transform="translate(-100.000000, -125.000000)" fill="#FFFFFF">
            <g id="Group-2" transform="translate(60.000000, 100.000000)">
                <g id="logo.d8e3dd1a" transform="translate(40.000000, 25.000000)">
                    <path d="M12.535014,4.01702807 C11.4134273,4.01702807 10.5042017,3.11778571 10.5042017,2.00851404 C10.5042017,0.899242364 11.4134273,0 12.535014,0 C13.6566007,0 14.5658263,0.899242364 14.5658263,2.00851404 C14.5658263,3.11778571 13.6566007,4.01702807 12.535014,4.01702807 Z M1.47058824,7.96479704 C0.65840478,7.96479704 0,7.31362153 0,6.51035584 C0,5.70709015 0.65840478,5.05591464 1.47058824,5.05591464 C2.28277169,5.05591464 2.94117647,5.70709015 2.94117647,6.51035584 C2.94117647,7.31362153 2.28277169,7.96479704 1.47058824,7.96479704 Z M23.5294118,7.96479704 C22.7172283,7.96479704 22.0588235,7.31362153 22.0588235,6.51035584 C22.0588235,5.70709015 22.7172283,5.05591464 23.5294118,5.05591464 C24.3415952,5.05591464 25,5.70709015 25,6.51035584 C25,7.31362153 24.3415952,7.96479704 23.5294118,7.96479704 Z M6.16246499,5.33295106 C5.19557992,5.33295106 4.41176471,4.55774213 4.41176471,3.60147344 C4.41176471,2.64520476 5.19557992,1.86999583 6.16246499,1.86999583 C7.12935005,1.86999583 7.91316527,2.64520476 7.91316527,3.60147344 C7.91316527,4.55774213 7.12935005,5.33295106 6.16246499,5.33295106 Z M18.907563,5.33295106 C17.940678,5.33295106 17.1568627,4.55774213 17.1568627,3.60147344 C17.1568627,2.64520476 17.940678,1.86999583 18.907563,1.86999583 C19.8744481,1.86999583 20.6582633,2.64520476 20.6582633,3.60147344 C20.6582633,4.55774213 19.8744481,5.33295106 18.907563,5.33295106 Z M12.6420977,30 C8.10537542,30 4.49926282,26.4334825 4.49926282,21.9465733 L4.49926282,11.8222655 C4.49926282,10.9018739 5.31354631,10.0965312 6.24415602,10.0965312 C7.17476572,10.0965312 7.98904921,10.9018739 7.98904921,11.8222655 L7.98904921,21.9465733 C7.98904921,24.4776503 10.082921,26.5485314 12.6420977,26.5485314 C15.2012744,26.5485314 17.2951462,24.4776503 17.2951462,21.9465733 L17.2951462,11.8222655 C17.2951462,10.9018739 18.1094297,10.0965312 19.0400394,10.0965312 C19.9706491,10.0965312 20.7849326,10.9018739 20.7849326,11.8222655 L20.7849326,21.9465733 C20.7849326,26.4334825 17.17882,30 12.6420977,30 Z" id="Shape"></path>
                </g>
            </g>
        </g>
    </g>
</svg>